<svg version="1.1" id="Layer_1" xmlns="http://www.w3.org/2000/svg" xmlns:xlink="http://www.w3.org/1999/xlink" x="0px" y="0px"
	 width="100%" viewBox="0 0 1024 1024" enable-background="new 0 0 1024 1024" xml:space="preserve">
<path fill="#000000" opacity="1.000000" stroke="none" 
	d="
M177.109619,612.017578 
	C133.951920,582.785889 125.653526,527.236328 149.473282,487.011353 
	C151.055328,484.339691 151.340897,482.061005 150.473236,479.087067 
	C140.105835,443.551971 148.635300,412.516693 173.154510,385.415253 
	C179.000000,378.954132 185.862839,373.652130 193.134445,368.904022 
	C195.425095,367.408325 196.667160,365.725342 196.694305,362.853638 
	C197.044708,325.753815 217.620132,302.907166 249.596985,288.236755 
	C257.646973,284.543610 266.257294,282.512878 274.905151,280.788483 
	C277.248840,280.321167 278.777039,279.184387 280.182343,277.430389 
	C296.171509,257.474365 317.336609,247.539581 342.421112,244.522781 
	C354.097351,243.118530 365.079712,244.435745 375.202545,250.133286 
	C390.213776,258.582214 398.059906,272.004913 398.210052,289.036316 
	C398.584656,331.528503 398.340820,374.026062 398.353394,416.521484 
	C398.355530,423.661377 398.374420,423.672577 405.673828,423.685059 
	C410.172943,423.692780 414.673401,423.720642 419.170898,423.626801 
	C422.964905,423.547668 424.771362,421.833130 424.720764,417.700073 
	C424.547333,403.537170 424.757050,389.369812 424.622528,375.206024 
	C424.576416,370.352509 426.072845,366.462341 429.794373,363.334045 
	C431.573944,361.838165 432.939087,359.793945 434.835052,358.501404 
	C443.213379,352.789764 444.748871,344.664642 443.601929,335.355835 
	C442.520325,326.577423 442.633331,317.731323 442.703094,308.907684 
	C442.731110,305.366425 441.709717,303.013000 438.341431,301.351746 
	C425.867493,295.199554 421.532043,280.635956 424.217957,269.006622 
	C427.515686,254.728333 439.095856,245.770477 452.903625,245.662048 
	C469.780243,245.529510 481.281219,254.614029 483.585846,270.861908 
	C485.300751,282.952362 480.612915,293.022339 470.341644,299.506897 
	C465.500122,302.563507 464.647522,306.082367 465.618256,310.729828 
	C466.173401,313.387604 466.408417,316.003510 466.270660,318.647278 
	C465.697784,329.644196 467.520905,340.547668 467.430054,351.535034 
	C467.381439,357.412048 466.053833,362.760315 461.289154,366.135376 
	C450.008667,374.126068 446.568115,384.801056 448.178192,398.114349 
	C448.992676,404.848816 448.463745,411.766144 448.274994,418.593414 
	C448.173035,422.280640 449.679749,423.734039 453.249451,423.712891 
	C457.073486,423.690186 460.902222,423.858429 464.722382,424.064423 
	C466.470367,424.158722 467.531158,423.145630 468.563568,422.080322 
	C481.189392,409.051941 493.854126,396.060242 506.364716,382.921844 
	C509.919373,379.188843 509.499390,377.315094 505.364716,374.103699 
	C495.292480,366.280609 491.800232,355.723877 493.842010,343.566223 
	C495.863068,331.532166 503.515747,324.314148 515.325256,321.237122 
	C528.193298,317.884369 543.772034,325.088531 549.285950,337.195465 
	C555.603638,351.067291 551.646729,366.557343 539.470703,374.244202 
	C535.933105,376.477570 533.856384,379.083771 533.171387,383.198700 
	C532.210388,388.971558 529.035217,393.501068 524.914551,397.663879 
	C510.386261,412.340851 496.066956,427.224670 481.666229,442.027924 
	C480.494965,443.231903 479.364929,444.419525 479.373322,446.288727 
	C479.401825,452.620911 479.381531,458.953369 479.388672,465.285706 
	C479.392670,468.798431 481.933167,468.605713 484.309570,468.621216 
	C494.956146,468.690643 505.550476,467.250458 516.220703,467.681976 
	C524.649963,468.022888 528.768433,472.196381 528.328247,480.577271 
	C528.040955,486.048584 524.464111,489.495422 518.229309,490.340790 
	C507.152802,491.842773 495.974823,491.461029 484.849335,492.007202 
	C480.365265,492.227325 479.140259,493.829681 479.278534,498.026031 
	C479.530884,505.683533 479.614166,513.367737 479.254578,521.016724 
	C479.024811,525.904480 481.008148,527.057861 485.434174,526.699219 
	C496.728210,525.783936 508.056610,525.532959 519.387329,525.747620 
	C525.959473,525.872070 530.347839,528.775085 531.882446,533.802979 
	C534.036438,540.860046 529.231445,547.836487 521.649780,548.299255 
	C509.383972,549.047974 497.110596,549.754395 484.829712,550.127686 
	C480.781891,550.250732 478.961792,551.439575 479.307861,555.631958 
	C479.540100,558.445679 479.751709,561.363464 479.278961,564.115479 
	C477.203949,576.194702 482.166321,584.674255 491.130737,592.585571 
	C503.219269,603.253906 514.187073,615.197388 525.557861,626.670959 
	C529.330139,630.477295 531.364136,635.126770 531.356750,640.591492 
	C531.340515,652.590149 531.381653,664.588745 531.367676,676.587402 
	C531.358215,684.752686 527.716980,688.942017 520.468628,689.217224 
	C513.969788,689.463989 509.100342,684.436218 508.926422,676.840942 
	C508.728058,668.179443 508.631958,659.503296 508.919067,650.847595 
	C509.087189,645.779419 507.435120,642.099243 503.781036,638.552490 
	C492.188324,627.300232 480.747955,615.876709 469.626892,604.160461 
	C465.667328,599.988953 461.267487,600.050720 456.408264,600.442261 
	C454.042542,600.632874 453.379150,602.167786 453.377716,604.230286 
	C453.371674,612.895874 453.408936,621.561768 453.340698,630.226807 
	C453.324432,632.294312 454.341217,633.694885 455.722565,634.950806 
	C458.926117,637.863403 461.917725,641.090759 465.440704,643.553406 
	C472.783752,648.686646 475.199860,655.902649 475.086273,664.318787 
	C474.944733,674.806091 474.750732,685.295959 474.323242,695.774292 
	C474.170929,699.507446 475.363525,701.759583 478.529449,703.960083 
	C492.450806,713.636536 495.619904,733.558472 485.764832,747.400818 
	C476.806824,759.982971 457.797058,763.194214 444.654083,754.345337 
	C428.141174,743.227600 428.374237,715.820496 445.424347,704.270264 
	C449.623413,701.425720 450.845947,698.452820 450.796021,693.707886 
	C450.706909,685.239136 451.246033,676.760132 451.652344,668.291687 
	C451.792542,665.369568 450.865082,663.200562 448.566223,661.366089 
	C444.923431,658.459351 441.409149,655.388489 437.893616,652.326111 
	C432.929810,648.002136 430.779816,642.470642 430.796478,635.931335 
	C430.821930,625.933777 430.585693,615.934265 430.710449,605.938721 
	C430.758636,602.076111 429.074646,600.318726 425.458862,600.272522 
	C418.128113,600.178711 410.795715,600.219177 403.464020,600.194214 
	C400.209045,600.183167 398.513123,601.773499 398.415710,605.039429 
	C398.400818,605.539124 398.386200,606.039062 398.387177,606.538879 
	C398.455261,641.529419 397.803467,676.516907 397.656158,711.500366 
	C397.558289,734.737915 382.692322,758.633606 351.787109,761.155762 
	C327.942169,763.101746 305.824402,757.478394 286.042938,743.739502 
	C276.913513,737.398804 269.153107,729.583069 263.714661,719.841858 
	C261.511841,715.896301 258.618500,714.165100 254.412415,713.484924 
	C240.427795,711.223389 227.440796,706.172607 215.678787,698.330994 
	C196.376480,685.462402 185.109818,667.130249 180.786896,644.562378 
	C179.043091,635.458679 177.597687,626.198242 179.505188,616.850159 
	C179.909256,614.869934 179.292999,613.227966 177.109619,612.017578 
M295.370636,593.248962 
	C292.439423,593.820435 289.527527,594.538940 286.572205,594.926636 
	C282.761719,595.426453 281.105225,597.260010 281.257294,601.237549 
	C281.460114,606.543762 280.411499,611.810669 280.104340,617.117493 
	C279.773590,622.831543 279.250366,628.847290 274.985657,633.450256 
	C269.438446,639.437500 263.917053,645.455017 258.180206,651.257446 
	C255.432999,654.036133 252.097092,655.744080 247.826645,654.981995 
	C239.879791,653.563965 233.263214,643.177490 242.043564,633.554260 
	C246.084839,629.124939 250.176483,624.740540 254.301590,620.389160 
	C256.213379,618.372559 257.375580,616.062134 257.596619,613.299133 
	C258.324371,604.201233 259.075043,595.104858 259.742065,586.002441 
	C260.304291,578.330383 263.305817,574.986389 270.918243,573.653320 
	C279.905334,572.079529 288.873688,570.395691 297.873260,568.898193 
	C300.422638,568.473938 301.716278,567.450745 301.697662,564.718811 
	C301.626068,554.221436 301.644836,543.723206 301.672821,533.225464 
	C301.680054,530.504700 300.556366,529.191956 297.729004,529.490417 
	C281.510681,531.202209 265.196533,531.182373 248.933731,532.100281 
	C245.550858,532.291199 243.682068,533.805054 241.701340,536.401978 
	C234.391403,545.985962 224.814789,550.654175 212.557678,548.399475 
	C198.987000,545.903137 189.451782,535.055664 188.705536,521.407349 
	C187.927094,507.170135 196.280533,494.132660 209.079880,491.179871 
	C222.127197,488.169830 236.030563,491.599792 243.270737,505.247375 
	C244.755432,508.046021 246.613876,508.967712 249.625931,508.817383 
	C265.559692,508.022064 281.497314,507.292450 297.438629,506.668396 
	C300.783203,506.537476 301.717834,504.831421 301.703064,501.886902 
	C301.664612,494.221863 301.531189,486.551300 301.766907,478.893158 
	C301.901184,474.530792 300.359802,472.947449 295.935272,473.251007 
	C281.665314,474.230133 267.372498,474.872162 253.097580,475.785919 
	C246.584686,476.202789 242.175598,473.430054 240.675507,467.538116 
	C238.683517,459.714172 242.645935,453.293365 250.807251,452.601959 
	C265.866791,451.326172 280.976349,450.626495 296.070618,449.786407 
	C299.089630,449.618378 301.496582,449.643036 301.754395,445.438080 
	C302.591278,431.789276 306.920990,426.863403 320.082642,423.790436 
	C321.670898,423.419647 323.446899,423.592255 324.352997,421.746552 
	C326.576050,417.218353 324.037170,408.144897 319.723572,405.391205 
	C311.261169,399.989044 303.829865,393.564484 301.198029,383.432098 
	C300.305176,379.994781 298.798401,378.081207 295.790649,376.402222 
	C282.731750,369.112274 276.784546,354.540405 280.668335,340.108246 
	C284.365265,326.370422 294.178314,319.606934 310.374542,319.633636 
	C322.362885,319.653381 331.804688,326.545532 335.913025,338.275757 
	C340.165131,350.416473 336.635468,364.160553 327.416595,371.360046 
	C322.835510,374.937714 322.627686,376.430969 326.604797,380.751251 
	C330.380066,384.852295 335.311371,387.440887 340.031250,390.229462 
	C344.628418,392.945526 346.820465,396.995697 347.265472,402.069000 
	C347.758148,407.686066 348.175629,413.323761 348.256683,418.957764 
	C348.306885,422.447937 349.767487,423.742371 353.074554,423.693878 
	C358.072449,423.620575 363.072693,423.728699 368.071442,423.691620 
	C374.169525,423.646393 374.943024,422.946350 374.898987,416.664795 
	C374.657227,382.181885 375.187439,347.706696 375.670105,313.229126 
	C375.793304,304.429749 376.463715,295.531067 374.627808,286.823059 
	C372.876099,278.514404 368.343964,272.173981 360.108704,269.140717 
	C353.539795,266.721191 346.760284,266.759644 339.944824,268.032410 
	C320.138031,271.731232 304.749298,282.417053 292.534058,298.073151 
	C290.063507,301.239624 287.247375,303.054413 282.989380,303.532745 
	C268.885284,305.117157 255.704742,309.532501 244.310181,318.302643 
	C227.336288,331.367096 216.822021,347.434174 220.044235,370.094269 
	C220.832962,375.640869 219.195175,380.574036 213.456375,383.393921 
	C207.598312,386.272308 202.446411,390.307343 197.515427,394.538757 
	C173.592560,415.067596 162.475922,444.891205 174.397110,476.016693 
	C176.981232,482.763672 176.184891,488.105133 172.289291,494.212585 
	C155.798950,520.066284 155.359131,546.543091 171.328125,572.783508 
	C178.389725,584.387207 188.981979,592.649963 200.616547,599.441956 
	C204.719376,601.837036 206.585922,605.186462 204.899673,609.394958 
	C202.116562,616.340942 201.312225,623.143799 202.206223,630.667664 
	C204.535522,650.270874 211.907715,666.784729 228.404053,678.501160 
	C240.712631,687.243286 254.574280,691.450134 269.458771,692.430664 
	C274.480408,692.761414 277.460571,695.070374 279.169556,699.577820 
	C280.778412,703.821167 283.297577,707.544861 286.011932,711.148682 
	C301.959229,732.321838 331.592590,743.114319 356.077759,736.720520 
	C365.914581,734.151794 371.936554,728.174622 373.748291,717.992493 
	C374.827484,711.927368 375.729309,705.894165 375.645447,699.699036 
	C375.307373,674.725952 375.083069,649.751221 374.833038,624.776978 
	C374.769653,618.445374 374.589325,612.107300 374.798035,605.783264 
	C374.936310,601.592957 373.096252,600.079285 369.164673,600.159729 
	C364.500977,600.255249 359.832489,600.104614 355.168121,600.182373 
	C349.082672,600.283875 348.360138,601.055847 348.345612,607.240112 
	C348.301422,626.070007 348.384460,644.900879 348.193787,663.729187 
	C348.128235,670.202820 347.619019,676.777405 344.135468,682.508911 
	C338.988495,690.977234 331.708740,697.677185 324.581085,704.351318 
	C320.595917,708.082825 313.804871,706.745972 310.093231,702.709961 
	C305.910217,698.161316 305.464111,691.794678 309.239014,687.285217 
	C312.123230,683.839661 314.964325,680.257874 318.359619,677.364502 
	C323.135712,673.294434 324.628479,668.166382 324.640381,662.318665 
	C324.678955,643.322205 324.573517,624.324890 324.728394,605.329590 
	C324.760895,601.341736 323.255768,599.966919 319.447174,600.141785 
	C315.109070,600.340881 310.829803,599.166504 308.111176,595.855896 
	C304.600433,591.580627 300.723358,591.572754 295.370636,593.248962 
M451.232452,285.171600 
	C457.814850,287.297821 465.561401,277.866089 463.153595,272.635834 
	C461.249725,268.500275 457.233948,265.128845 453.313446,265.486755 
	C448.716156,265.906433 444.233185,269.864044 443.463104,274.182678 
	C442.681580,278.565430 445.201813,282.371796 451.232452,285.171600 
M514.824585,344.303986 
	C511.646942,350.169403 513.349365,356.090332 519.034485,358.946045 
	C523.629089,361.253906 529.855225,358.955475 532.111023,354.118652 
	C534.350708,349.316254 531.656616,343.294403 526.264832,341.048981 
	C521.939941,339.247833 518.533203,341.125031 514.824585,344.303986 
M310.812744,339.482666 
	C309.497498,339.473450 308.134583,339.234741 306.875641,339.496460 
	C302.453369,340.415802 298.692535,345.291107 298.875214,349.639557 
	C299.074585,354.385681 303.310699,359.126678 307.769043,359.593384 
	C311.622314,359.996735 316.368835,356.296661 317.393402,351.697388 
	C318.603668,346.264587 316.065430,342.446259 310.812744,339.482666 
M452.930237,725.439270 
	C450.981689,731.284607 453.242432,736.306274 458.677429,738.204895 
	C463.516663,739.895508 469.578918,736.921570 471.276642,732.024170 
	C472.933319,727.245178 469.815247,721.564575 464.359985,719.978149 
	C459.471924,718.556885 456.134979,721.247986 452.930237,725.439270 
M222.133423,510.197662 
	C216.254547,508.616791 210.115036,511.675568 208.591568,516.944336 
	C207.365738,521.183838 211.120575,526.838257 216.125702,528.289917 
	C220.950439,529.689270 226.180405,526.534607 227.825333,520.858643 
	C229.207489,516.089294 226.133820,513.168274 222.133423,510.197662 
z"/>
<path fill="#000000" opacity="1.000000" stroke="none" 
	d="
M566.990723,712.000000 
	C566.985535,652.842712 566.980286,594.185364 566.978149,535.528076 
	C566.977905,528.652527 566.985779,528.651428 573.841614,528.641296 
	C588.172607,528.619995 602.504822,528.692139 616.833740,528.507324 
	C619.979919,528.466736 621.473022,529.425049 622.738770,532.391602 
	C637.110168,566.074768 651.652771,599.684937 666.163025,633.308838 
	C666.801575,634.788452 667.029480,636.570068 668.903076,637.396362 
	C671.371948,636.707825 671.661804,634.273682 672.460449,632.429260 
	C686.882629,599.124146 701.262390,565.800415 715.532898,532.430115 
	C716.690063,529.724121 718.132202,528.586609 721.084106,528.607727 
	C735.581055,528.711365 750.080322,528.751770 764.576111,528.584167 
	C768.357788,528.540466 769.401123,529.967957 769.397156,533.556885 
	C769.323914,599.379883 769.317749,665.203003 769.410950,731.025879 
	C769.416504,734.950500 768.104797,736.306396 764.226074,736.238647 
	C754.230774,736.064026 744.225220,736.003418 734.234131,736.275818 
	C729.823486,736.396179 728.553101,734.892639 728.568054,730.539612 
	C728.708740,689.546509 728.650757,648.552734 728.650146,607.559143 
	C728.650085,605.282471 728.650146,603.005859 728.650146,600.729187 
	C728.275757,600.636414 727.901367,600.543579 727.526978,600.450806 
	C724.186584,607.769165 720.791870,615.063293 717.515808,622.410339 
	C706.939636,646.129333 696.349731,669.842590 685.922607,693.627136 
	C684.444397,696.998901 682.593018,698.444336 678.816772,698.292847 
	C671.662659,698.005859 664.485352,698.070129 657.325134,698.263306 
	C653.999878,698.353027 652.254150,697.112061 650.913330,694.066772 
	C638.572815,666.038269 626.102844,638.066650 613.627319,610.097778 
	C612.709351,608.039734 612.202087,605.653625 609.627014,604.035278 
	C608.709778,606.718201 608.511230,609.218689 608.520020,611.859741 
	C608.604980,637.502441 608.574890,663.145508 608.639587,688.788330 
	C608.674438,702.610840 608.716797,716.435486 608.996887,730.254211 
	C609.085693,734.633301 607.954895,736.507507 603.120117,736.333130 
	C592.801208,735.961121 582.458008,736.048157 572.130371,736.244812 
	C568.144226,736.320679 566.841370,734.854553 566.975830,730.991821 
	C567.190247,724.835144 567.006775,718.664673 566.990723,712.000000 
z"/>
<path fill="#000000" opacity="1.000000" stroke="none" 
	d="
M574.748169,459.857849 
	C589.136230,419.878632 603.392883,380.264496 617.701599,340.669250 
	C627.202698,314.378113 636.850037,288.139496 646.238647,261.808441 
	C647.553833,258.119873 649.210449,256.502960 653.315674,256.571533 
	C667.308411,256.805328 681.308472,256.739471 695.303589,256.589813 
	C698.615173,256.554382 700.315674,257.547485 701.508179,260.813599 
	C719.819458,310.962036 738.474792,360.984283 755.664978,411.537842 
	C761.715637,429.331879 768.329163,446.934296 774.653931,464.635559 
	C775.476562,466.937927 776.626831,469.182800 776.631836,472.375122 
	C770.113708,472.375122 763.815857,472.376251 757.517944,472.374786 
	C750.352966,472.373077 743.161316,471.992950 736.032227,472.496918 
	C731.199890,472.838531 729.231201,470.804596 727.881897,466.641510 
	C723.882935,454.303101 719.508240,442.085541 715.585266,429.723938 
	C714.249878,425.515991 712.011353,424.053772 707.644348,424.084320 
	C684.484314,424.246521 661.321960,424.220795 638.161743,424.067749 
	C634.159973,424.041321 632.236755,425.461517 631.015869,429.280945 
	C626.911804,442.120209 622.347107,454.812073 618.224365,467.645721 
	C617.068604,471.243500 615.393677,472.588562 611.497498,472.506744 
	C599.673523,472.258392 587.840027,472.475830 576.010193,472.482391 
	C574.532288,472.483215 573.054199,472.307068 571.351868,472.198578 
	C570.796143,467.572021 573.836853,464.192383 574.748169,459.857849 
M647.730347,384.056854 
	C648.443420,385.122040 649.505676,385.571625 650.721375,385.573608 
	C665.382812,385.597443 680.044312,385.634094 694.705505,385.578217 
	C697.678345,385.566895 698.756775,383.544495 698.549683,380.861023 
	C698.449341,379.561127 697.961548,378.270599 697.521912,377.020538 
	C690.678711,357.562073 683.847595,338.099182 676.907104,318.675385 
	C676.170532,316.613983 676.077393,313.994995 673.527954,312.879272 
	C671.635010,313.893555 671.394836,315.875946 670.763489,317.500549 
	C668.474365,323.391052 666.289612,329.324707 664.193115,335.286957 
	C658.569214,351.281372 652.067200,366.971497 647.730347,384.056854 
z"/>
<path fill="#000000" opacity="1.000000" stroke="none" 
	d="
M931.349060,713.002563 
	C931.347473,719.334412 931.153870,725.175537 931.410583,730.996704 
	C931.585815,734.971680 930.013000,736.251343 926.187866,736.210876 
	C913.357605,736.075195 900.524963,736.166138 887.693237,736.167664 
	C862.196411,736.170715 836.699585,736.184509 811.202759,736.165405 
	C804.676758,736.160522 804.655884,736.111816 804.655396,729.456970 
	C804.650085,664.631714 804.709229,599.806274 804.542786,534.981445 
	C804.529724,529.885681 805.993713,528.370361 811.020386,528.544922 
	C821.173340,528.897522 831.353271,528.839600 841.510193,528.543274 
	C846.100037,528.409363 847.446350,529.927734 847.434021,534.491272 
	C847.295593,585.984497 847.346252,637.478271 847.348877,688.971863 
	C847.349243,696.638062 847.355408,696.641602 855.025574,696.643005 
	C878.522644,696.647217 902.020630,696.755249 925.515991,696.558777 
	C930.104187,696.520447 931.843506,697.924500 931.408325,702.510254 
	C931.094910,705.813416 931.348267,709.170288 931.349060,713.002563 
z"/>
<path fill="#000000" opacity="1.000000" stroke="none" 
	d="
M849.348633,344.000122 
	C849.348938,384.797668 849.351685,425.095215 849.346680,465.392761 
	C849.345825,472.333191 849.330688,472.341980 842.647034,472.350403 
	C831.823303,472.364044 820.997375,472.240875 810.177063,472.436646 
	C806.270020,472.507324 804.567017,471.570221 804.574402,467.205719 
	C804.690247,398.766724 804.688538,330.327362 804.576782,261.888336 
	C804.569824,257.602997 806.151978,256.515869 810.120300,256.582855 
	C821.440369,256.773956 832.769104,256.811890 844.087158,256.569397 
	C848.333496,256.478455 849.436401,258.050995 849.416443,262.072632 
	C849.281738,289.214539 849.347534,316.357483 849.348633,344.000122 
z"/>
</svg>